<?xml version="1.0" encoding="UTF-8"?>
<svg xmlns="http://www.w3.org/2000/svg" viewBox="0 0 1000 1000" width="1000" height="1000">
  <defs>
    <linearGradient id="silver" x1="0" y1="0" x2="1" y2="1">
      <stop offset="0%"  stop-color="#ECEFF2"/>
      <stop offset="35%" stop-color="#D9DFE5"/>
      <stop offset="65%" stop-color="#B8C0C8"/>
      <stop offset="100%" stop-color="#9AA4AE"/>
    </linearGradient>
    <linearGradient id="rim" x1="0" y1="0" x2="1" y2="1">
      <stop offset="0%" stop-color="#F6F8FA"/>
      <stop offset="100%" stop-color="#8C96A1"/>
    </linearGradient>
    <filter id="depth" x="-20%" y="-20%" width="140%" height="140%">
      <feGaussianBlur in="SourceAlpha" stdDeviation="1.1" result="b"/>
      <feOffset dx="0" dy="1" result="o"/>
      <feMerge><feMergeNode in="o"/><feMergeNode in="SourceGraphic"/></feMerge>
    </filter>
  </defs>

  <g transform="translate(500,500)" filter="url(#depth)">
    <circle r="360" fill="url(#rim)"/>
    <circle r="330" fill="url(#silver)"/>
    <path d="
      M -310  35
      C -230  -5, -120 -25,  -10 -18
        100  -11,  205  10,  285  20
        294  10,  300  -5,  302 -18
        290  -75, 245 -125, 190 -155
        120 -192,  45 -205,   0 -205
        -80 -205, -160 -185, -220 -150
        -260 -125, -290 -95, -308 -60 Z"
      fill="url(#silver)"/>
    <path d="
      M -315  70
      C -250 125, -150 155,  -40 150
         60 145,  165 105,  265  35
         240 125, 150  190,   45 215
        -70 240, -185 205, -260 140 Z"
      fill="url(#silver)"/>
  </g>
</svg>